<svg xmlns="http://www.w3.org/2000/svg" viewBox="0 0 512 512">
<circle cx="256" cy="256" r="220" fill="#8ec9d2"/>
<path d="M72 256c0-104 53-183 143-213 43 34 77 84 78 143 1 48-24 77-67 87-54 13-91-7-154-17z" fill="#b4e33d"/>
<path d="M96 130c33-42 73-69 119-86 38 31 58 67 52 104-7 41-43 63-78 65-39 2-63-32-93-83z" fill="#b5e53d"/>
<path d="M42 270c43-12 91-5 119 28 26 31 16 76-17 103-27 22-69 13-102-13z" fill="#70bdc8"/>
<path d="M329 102c41 9 74 34 81 68 8 38-16 62-47 75-36 15-51 48-42 80 8 29 38 45 69 39 45-8 73-48 69-93-5-62-45-126-130-169z" fill="#a9df38"/>
<path d="M330 352c-42 11-68 40-62 77 7 42 45 63 91 57 38-5 69-29 89-65-32-39-71-67-118-69z" fill="#b5e53d"/>
<path d="M288 35h155c21 0 37 17 37 38v90c0 21-16 38-37 38h-65l-41 35c-9 8-22 1-22-11v-24h-27c-21 0-38-17-38-38V73c0-21 17-38 38-38z" fill="#df4052"/>
<path d="M332 78v34h-42c-8 0-15 7-15 15s7 15 15 15h42c4 25 15 47 33 64-11 10-24 18-39 24-8 3-12 12-8 20 3 8 12 12 20 9 23-8 43-20 58-36 16 16 35 28 58 36 8 3 17-1 20-9 4-8 0-17-8-20-15-6-28-14-39-24 18-17 29-39 33-64h42c8 0 15-7 15-15s-7-15-15-15h-42V78c0-8-7-15-15-15s-15 7-15 15v34h-58V78c0-8-7-15-15-15s-15 7-15 15z" fill="#fff"/>
<path d="M370 142h43c-3 18-10 33-22 46-11-13-18-28-21-46z" fill="#df4052"/>
<path d="M19 109h154c21 0 37 17 37 38v91c0 21-16 37-37 37h-65l-41 35c-9 8-22 1-22-11v-24H19c-21 0-37-16-37-37v-91c0-21 16-38 37-38z" fill="#f7f4f2"/>
<text x="96" y="229" text-anchor="middle" font-family="Arial,sans-serif" font-size="112" fill="#a9dce3">A</text>
<path d="M245 262h153c21 0 38 17 38 38v91c0 21-17 38-38 38h-65l-41 35c-9 8-22 1-22-11v-24h-25c-21 0-38-17-38-38v-91c0-21 17-38 38-38z" fill="#ffb84a"/>
<text x="320" y="382" text-anchor="middle" font-family="Arial,sans-serif" font-size="108" fill="#fff">अ</text>
</svg>