<svg xmlns="http://www.w3.org/2000/svg" viewBox="0 0 512 512"><path fill="#e7edf5" d="M72 32c0-18 14-32 32-32h208l128 128v352c0 18-14 32-32 32H104c-18 0-32-14-32-32z"/><path fill="#9eacbb" d="M312 0v96c0 18 14 32 32 32h96z"/><g fill="#9eacbb"><rect x="184" y="160" width="144" height="16" rx="8"/><rect x="136" y="232" width="240" height="16" rx="8"/><rect x="136" y="280" width="240" height="16" rx="8"/><rect x="136" y="328" width="240" height="16" rx="8"/><rect x="136" y="376" width="144" height="16" rx="8"/></g></svg>